<svg id="Layer_1" data-name="Layer 1" xmlns="http://www.w3.org/2000/svg" viewBox="0 0 448 512"><defs><style>.cls-1{fill:#fff;}</style></defs><path class="cls-1" d="M112,416H336a16,16,0,0,0,0-32H112a16,16,0,0,0,0,32Z" transform="translate(0 0)"/><path class="cls-1" d="M224,320A128,128,0,1,0,96,192,128,128,0,0,0,224,320Zm94.7-144H279.6c-1.6-30.4-7.7-53.8-14.6-70.8A96.18,96.18,0,0,1,318.7,176Zm-39.1,32h39.1A96.18,96.18,0,0,1,265,278.8C271.8,261.7,277.9,238.4,279.6,208Zm-64.9-95.5A104.57,104.57,0,0,1,223.8,96h.5a104.57,104.57,0,0,1,9.1,16.5c6,13.6,12.4,34.3,14.2,63.5H200.5C202.3,146.8,208.6,126.1,214.7,112.5ZM247.5,208c-1.8,29.2-8.1,49.9-14.2,63.5a104.57,104.57,0,0,1-9.1,16.5h-.5a104.57,104.57,0,0,1-9.1-16.5c-6-13.6-12.4-34.3-14.2-63.5ZM183,105.2c-6.8,17.1-12.9,40.4-14.6,70.8H129.3A96.18,96.18,0,0,1,183,105.2ZM168.4,208c1.6,30.4,7.7,53.8,14.6,70.8A96.18,96.18,0,0,1,129.3,208Z" transform="translate(0 0)"/><path d="M384,0H64A64.06,64.06,0,0,0,0,64V448a64.06,64.06,0,0,0,64,64H384a64.06,64.06,0,0,0,64-64V64A64.06,64.06,0,0,0,384,0Zm7,434.47H57v-396H391Z" transform="translate(0 0)"/><path d="M233.4,112.5A104.57,104.57,0,0,0,224.3,96h-.5a104.57,104.57,0,0,0-9.1,16.5c-6.1,13.6-12.4,34.3-14.2,63.5h47.1C245.8,146.8,239.4,126.1,233.4,112.5Z" transform="translate(0 0)"/><path d="M223.7,288h.5a104.57,104.57,0,0,0,9.1-16.5c6.1-13.6,12.4-34.3,14.2-63.5H200.4c1.8,29.2,8.2,49.9,14.2,63.5A104.57,104.57,0,0,0,223.7,288Z" transform="translate(0 0)"/><path d="M318.7,176A96.18,96.18,0,0,0,265,105.2c6.9,17,13,40.4,14.6,70.8Z" transform="translate(0 0)"/><path d="M318.7,208H279.6c-1.7,30.4-7.8,53.7-14.6,70.8A96.18,96.18,0,0,0,318.7,208Z" transform="translate(0 0)"/><path d="M183,105.2A96.18,96.18,0,0,0,129.3,176h39.1C170.1,145.6,176.2,122.3,183,105.2Z" transform="translate(0 0)"/><path d="M57,434.47H391v-396H57ZM224,64A128,128,0,1,1,96,192,128,128,0,0,1,224,64ZM112,384H336a16,16,0,0,1,0,32H112a16,16,0,0,1,0-32Z" transform="translate(0 0)"/><path d="M183,278.8c-6.9-17-13-40.4-14.6-70.8H129.3A96.18,96.18,0,0,0,183,278.8Z" transform="translate(0 0)"/></svg>